<?xml version="1.0" encoding="utf-8"?>
<!-- Generator: Adobe Illustrator 27.5.0, SVG Export Plug-In . SVG Version: 6.00 Build 0)  -->
<svg version="1.1" id="new-coinpayu" xmlns="http://www.w3.org/2000/svg" xmlns:xlink="http://www.w3.org/1999/xlink" x="0px"
	 y="0px" viewBox="0 0 200 200" style="enable-background:new 0 0 200 200;" xml:space="preserve">
<style type="text/css">
	.st0{fill:#999999;}
</style>
<path class="st0" d="M26.2,64.6c-6.9-0.1-12.5,5.4-12.6,12.3c0,0,0,0.1,0,0.1l0,0v51.7c0,6.9,5.6,12.6,12.5,12.6s12.5-5.6,12.6-12.5
	V77C38.7,70.2,33.1,64.6,26.2,64.6z M43.6,147.4c0,7.4,6,13.4,13.3,13.4h9.3v26.7c0,6.9,5.6,12.6,12.6,12.6s12.6-5.6,12.6-12.6
	v-26.7h17v26.7c0.7,7,6.9,12,13.9,11.3c6-0.6,10.7-5.3,11.3-11.3l0,0v-26.7h9.1c7.4,0,13.4-6,13.4-13.4l0,0V67.3H43.6L43.6,147.4
	L43.6,147.4z M127.7,18.6l8.8-15.8c0.6-0.6,0.6-1.6,0-2.3l0,0l0,0c-0.6-0.7-1.6-0.7-2.3-0.1c-0.1,0-0.1,0.1-0.1,0.1L125,16.3
	c-15.7-6.7-33.5-6.7-49.3,0L66.7,0.5c-0.6-0.5-1.4-0.5-2,0C63.9,1,63.6,2,64,2.8l0,0l8.8,15.9c-17.5,7.8-29,25-29.6,44.2h113.6
	C156.3,43.8,145,26.6,127.7,18.6z M74.3,42.9c-2.5,0-4.5-2-4.5-4.5l0,0c0-2.5,2-4.5,4.5-4.5s4.5,2,4.5,4.5S76.8,42.9,74.3,42.9
	L74.3,42.9z M125.8,42.9c-2.5,0-4.5-2-4.5-4.5l0,0c0-2.5,2-4.5,4.5-4.5c2.5,0,4.5,2,4.6,4.5l0,0c0.1,2.4-1.8,4.5-4.3,4.5
	c-0.1,0-0.1,0-0.1,0L125.8,42.9L125.8,42.9z M173.8,64.8c-6.9-0.1-12.5,5.4-12.6,12.3l0,0l0,0v51.7c0,6.9,5.6,12.5,12.6,12.5
	c6.9,0,12.5-5.6,12.5-12.5V77.2c0-6.9-5.6-12.4-12.4-12.4H173.8L173.8,64.8z"/>
</svg>
