<?xml version="1.0" encoding="UTF-8"?>
<svg id="new-coinpayu" xmlns="http://www.w3.org/2000/svg" viewBox="0 0 200 200">
  <defs>
    <style>
      .cls-1 {
        fill: #999999;
      }
    </style>
  </defs>
  <path class="cls-1" d="m177.15,157.02h-51.49v22.82h11.4c2.07-.07,4.05,1,5.1,2.8,1.07,1.8,1.07,4.02,0,5.82s-3.02,2.87-5.1,2.8h-68.44c-3.15,0-5.7-2.55-5.7-5.7s2.55-5.7,5.7-5.7h11.4v-22.82H22.82c-12.6,0-22.82-10.22-22.82-22.82V31.53C0,18.93,10.22,8.73,22.82,8.73h154.36c12.6,0,22.8,10.2,22.82,22.8v102.66c-.02,12.6-10.25,22.82-22.85,22.82h0ZM11.4,122.8v11.42c0,6.3,5.1,11.4,11.4,11.4h154.36c6.3,0,11.42-5.12,11.42-11.4v-11.42H11.4Z"/>
</svg>