<?xml version="1.0" encoding="utf-8"?>
<!-- Generator: Adobe Illustrator 27.5.0, SVG Export Plug-In . SVG Version: 6.00 Build 0)  -->
<svg version="1.1" id="new-coinpayu" xmlns="http://www.w3.org/2000/svg" xmlns:xlink="http://www.w3.org/1999/xlink" x="0px"
	 y="0px" viewBox="0 0 200 200" style="enable-background:new 0 0 200 200;" xml:space="preserve">
<style type="text/css">
	.st0{fill:#999999;}
</style>
<path class="st0" d="M154.4,107.6c0-37.2,20.7-38.1,21.6-38.8c-8.4-11.9-21.6-19.3-36.1-20.1c-15.6-1.6-30.4,9.1-38.3,9.1
	s-20.1-9.1-32.9-8.8C51.3,49.3,35.4,58.8,26.8,74c-17.6,30.5-4.5,75.9,13.3,100.7c8.4,12.1,18.4,25.9,31.6,25.3s17.5-8.3,32.8-8.3
	s19.6,8.3,32.9,8s22.3-12.4,30.7-24.5c5.6-8.6,10.1-17.9,13.3-27.7c0,0-26.7-15.1-26.7-40L154.4,107.6L154.4,107.6z M99.9,50
	c0-27.6,22.4-50,50-50C149.9,27.6,127.5,50,99.9,50L99.9,50z"/>
</svg>
