<?xml version="1.0" encoding="utf-8"?>
<!-- Generator: Adobe Illustrator 27.5.0, SVG Export Plug-In . SVG Version: 6.00 Build 0)  -->
<svg version="1.1" id="_图层_1" xmlns="http://www.w3.org/2000/svg" xmlns:xlink="http://www.w3.org/1999/xlink" x="0px" y="0px"
	 viewBox="0 0 3476.2 5800" style="enable-background:new 0 0 3476.2 5800;" xml:space="preserve">
<style type="text/css">
	.st0{fill:#FFFFFF;}
</style>
<path class="st0" d="M2923.9,2736.8c0,0,392.6-94.1,442.8-729.5c37.6-475.9-554.8-945.5-1192.9-907.9l26.9-786L1712.2,300
	l-19.7,814.7l-364.8-16.1l7.1-790.5l-491.2-7.1l3.6,800.4l-970.7,30.4l-21.4,520.8l384.5-6.3c0,0,279.6-52.9,281.4,241
	c0.9,294,6.3,1989.6,6.3,1989.6s9,261.7-208.9,261.7c-218.7,0-276-14.3-276-14.3L-100,4717.6l1001.1-8l-20.6,780.6l490.2,7.1
	l-9-808.4l374.6,5.4l-10.7,803.9l498.3,1.8l-2.7-806.6c0,0,1291.4,114.7,1396.3-1015.4c60-647.9-693.7-939.2-693.7-939.2V2736.8z
	 M1333.9,1640.7c0,0,1148.1-108.4,1149,458.9c0.9,681.1-1140,512.6-1140,512.6l-9-972.4V1640.7z M1351,4125.1l-5.4-1033.4
	c0,0,1373-133.6,1352.4,490.2C2674.7,4316,1351,4125.1,1351,4125.1z"/>
</svg>
